<svg width="880" height="150" xmlns="http://www.w3.org/2000/svg" xmlns:xlink="http://www.w3.org/1999/xlink">
  <defs>
    <pattern id="pattern" x="0" y="0" width="15" height="15" patternUnits="userSpaceOnUse">
      <circle cx="7.5" cy="7.5" r="1.5" fill="#dbdada" />
    </pattern>
    <clipPath id="roundedCorners">
      <rect width="880" height="150" rx="8" ry="8" />
    </clipPath>
    
    <!-- Иконка Telegram -->
    <g id="telegram-icon">
<!--       <path d="M25,2c12.703,0 23,10.297 23,23c0,12.703 -10.297,23 -23,23c-12.703,0 -23,-10.297 -23,-23c0,-12.703 10.297,-23 23,-23zM32.934,34.375c0.423,-1.298 2.405,-14.234 2.65,-16.783c0.074,-0.772 -0.17,-1.285 -0.648,-1.514c-0.578,-0.278 -1.434,-0.139 -2.427,0.219c-1.362,0.491 -18.774,7.884 -19.78,8.312c-0.954,0.405 -1.856,0.847 -1.856,1.487c0,0.45 0.267,0.703 1.003,0.966c0.766,0.273 2.695,0.858 3.834,1.172c1.097,0.303 2.346,0.04 3.046,-0.395c0.742,-0.461 9.305,-6.191 9.92,-6.693c0.614,-0.502 1.104,0.141 0.602,0.644c-0.502,0.502 -6.38,6.207 -7.155,6.997c-0.941,0.959 -0.273,1.953 0.358,2.351c0.721,0.454 5.906,3.932 6.687,4.49c0.781,0.558 1.573,0.811 2.298,0.811c0.725,0 1.107,-0.955 1.468,-2.064z" fill="#0088cc"/> -->
    </g>
    
    <!-- Иконка почты -->
      <g id="email-icon">
<!--       <circle cx="0" cy="0" r="25" fill="#ea4335"/>
      <path d="M -15 -10 L 15 -10 L 15 10 L -15 10 Z" 
            fill="none" stroke="#ffffff" stroke-width="2.5" stroke-linecap="round" stroke-linejoin="round"/>
      <path d="M -15 -10 L 0 0 L 15 -10" 
            fill="none" stroke="#ffffff" stroke-width="2.5" stroke-linecap="round" stroke-linejoin="round"/> -->
    </g>

      <!-- Иконка WhatsApp из файла -->
    <g id="whatsapp-icon">
<!--       <path d="M25,2c-12.682,0 -23,10.318 -23,23c0,3.96 1.023,7.854 2.963,11.29l-2.926,10.44c-0.096,0.343 -0.003,0.711 0.245,0.966c0.191,0.197 0.451,0.304 0.718,0.304c0.08,0 0.161,-0.01 0.24,-0.029l10.896,-2.699c3.327,1.786 7.074,2.728 10.864,2.728c12.682,0 23,-10.318 23,-23c0,-12.682 -10.318,-23 -23,-23zM36.57,33.116c-0.492,1.362 -2.852,2.605 -3.986,2.772c-1.018,0.149 -2.306,0.213 -3.72,-0.231c-0.857,-0.27 -1.957,-0.628 -3.366,-1.229c-5.923,-2.526 -9.791,-8.415 -10.087,-8.804c-0.295,-0.389 -2.411,-3.161 -2.411,-6.03c0,-2.869 1.525,-4.28 2.067,-4.864c0.542,-0.584 1.181,-0.73 1.575,-0.73c0.394,0 0.787,0.005 1.132,0.021c0.363,0.018 0.85,-0.137 1.329,1.001c0.492,1.168 1.673,4.037 1.819,4.33c0.148,0.292 0.246,0.633 0.05,1.022c-0.196,0.389 -0.294,0.632 -0.59,0.973c-0.296,0.341 -0.62,0.76 -0.886,1.022c-0.296,0.291 -0.603,0.606 -0.259,1.19c0.344,0.584 1.529,2.493 3.285,4.039c2.255,1.986 4.158,2.602 4.748,2.894c0.59,0.292 0.935,0.243 1.279,-0.146c0.344,-0.39 1.476,-1.703 1.869,-2.286c0.393,-0.583 0.787,-0.487 1.329,-0.292c0.542,0.194 3.445,1.604 4.035,1.896c0.59,0.292 0.984,0.438 1.132,0.681c0.148,0.242 0.148,1.41 -0.344,2.771z" fill="#40c351"/> -->
    </g>
  </defs>

  <!-- Фон -->
  <rect width="100%" height="100%" fill="#fbf9f9" rx="8" ry="8" />
  
  <!-- Точечный градиент (обрезанный по скругленным углам) -->
  <rect width="100%" height="100%" fill="url(#pattern)" clip-path="url(#roundedCorners)" />
  
  <!-- Ссылка на Telegram -->
<!--   <a xlink:href="" target="_blank">
    <g transform="translate(660, 50)">
      <use xlink:href="#telegram-icon"/>
      <text x="23" y="65" text-anchor="middle" font-family="Arial" font-size="12" fill="#333">Telegram</text>
    </g>
  </a> -->
  
  <!-- Ссылка на почту -->
<!--   <a xlink:href="" target="_blank">
    <g transform="translate(580, 75)">
      <use xlink:href="#email-icon"/>
      <text x="0" y="40" text-anchor="middle" font-family="Arial" font-size="12" fill="#333">Email</text>
    </g>
  </a> -->
  
<!-- Ссылка на WhatsApp -->
<!--   <a xlink:href="" target="_blank">
    <g transform="translate(765, 50)">
      <use xlink:href="#whatsapp-icon"/>
      <text x="25" y="65" text-anchor="middle" font-family="Arial" font-size="12" fill="#333">WhatsApp</text>
    </g>
  </a> -->

  <!-- Мордочка кота (уменьшена в 2 раза) -->
  <g transform="translate(440, 83) scale(0.8)">
    <!-- Голова -->
    <circle cx="0" cy="0" r="80" fill="#000000"/>
    
    <!-- Уши -->
    <path d="M -50 -60 L -30 -100 L -10 -60 Z" fill="#000000"/>
    <path d="M 50 -60 L 30 -100 L 10 -60 Z" fill="#000000"/>
    
    <!-- Глаза (белая основа) -->
    <circle cx="-25" cy="-10" r="15" fill="#ffffff"/>
    <circle cx="25" cy="-10" r="15" fill="#ffffff"/>
    
    <!-- Зрачки (анимированные) -->
    <circle cx="-25" cy="-10" r="7" fill="#4d2807ff">
      <animate attributeName="cx" values="-25;-25;-20;-30;-25;-25;-25;-25" keyTimes="0;0.1;0.2;0.3;0.4;0.5;0.6;1" dur="8s" repeatCount="indefinite" calcMode="discrete"/>
      <animate attributeName="cy" values="-10;-10;-15;-5;-10;-10;-10;-10" keyTimes="0;0.1;0.2;0.3;0.4;0.5;0.6;1" dur="6s" repeatCount="indefinite" calcMode="discrete"/>
    </circle>
    <circle cx="25" cy="-10" r="7" fill="#633105ff">
      <animate attributeName="cx" values="25;25;30;20;25;25;25;25" keyTimes="0;0.1;0.2;0.3;0.4;0.5;0.6;1" dur="8s" repeatCount="indefinite" calcMode="discrete"/>
      <animate attributeName="cy" values="-10;-10;-15;-5;-10;-10;-10;-10" keyTimes="0;0.1;0.2;0.3;0.4;0.5;0.6;1" dur="6s" repeatCount="indefinite" calcMode="discrete"/>
    </circle>
    
    <!-- Нос -->
    <path d="M -5 0 L 5 0 L 0 10 Z" fill="#ff9999"/>
    
    <!-- Усы -->
    <line x1="-10" y1="15" x2="-50" y2="5" stroke="#ffffff" stroke-width="2"/>
    <line x1="-10" y1="20" x2="-50" y2="20" stroke="#ffffff" stroke-width="2"/>
    <line x1="-10" y1="25" x2="-50" y2="35" stroke="#ffffff" stroke-width="2"/>
    <line x1="10" y1="15" x2="50" y2="5" stroke="#ffffff" stroke-width="2"/>
    <line x1="10" y1="20" x2="50" y2="20" stroke="#ffffff" stroke-width="2"/>
    <line x1="10" y1="25" x2="50" y2="35" stroke="#ffffff" stroke-width="2"/>
  </g>
</svg>
